# xmcd
#
# Track frame offsets: 
#        150
#        13322
#        33570
#        56466
#        66180
#        82065
#        97872
#        103397
#        125978
#        163295
#        180167
#
# Disc length: 2588 seconds
#
# Revision: 0
# Processed by: cddbd v1.5.2PL0 Copyright (c) Steve Scherf et al.
# Submitted via: ExactAudioCopy v0.99pb4
#
DISCID=990a1a0b
DTITLE=Gravelroad - Shot The Devil
DYEAR=2008
DGENRE=Blues
TTITLE0=Fred #3
TTITLE1=I Shot The Devil
TTITLE2=Call My Name
TTITLE3=Trainwreck
TTITLE4=Sammy
TTITLE5=Taildragger
TTITLE6=Hair Of The Dog
TTITLE7=Forty-Four
TTITLE8=Lonely Nights
TTITLE9=Goin' Home
TTITLE10=Bad Dog Remix (by Specs One)
EXTD=
EXTT0=
EXTT1=
EXTT2=
EXTT3=
EXTT4=
EXTT5=
EXTT6=
EXTT7=
EXTT8=
EXTT9=
EXTT10=
PLAYORDER=
